<svg version="1.1" viewBox="0.0 0.0 569.5695538057743 284.1076115485564" fill="none" stroke="none" stroke-linecap="square" stroke-miterlimit="10" xmlns:xlink="http://www.w3.org/1999/xlink" xmlns="http://www.w3.org/2000/svg"><clipPath id="p.0"><path d="m0 0l569.5696 0l0 284.1076l-569.5696 0l0 -284.1076z" clip-rule="nonzero"/></clipPath><g clip-path="url(#p.0)"><path fill="#000000" fill-opacity="0.0" d="m0 0l569.5696 0l0 284.1076l-569.5696 0z" fill-rule="evenodd"/><path fill="#000000" fill-opacity="0.0" d="m3.2742782 9.976297l118.267715 0l0 36.34646l-118.267715 0z" fill-rule="evenodd"/><path fill="#123693" d="m42.273666 18.757025q-0.46875 0 -0.78125 -0.296875q-0.296875 -0.3125 -0.296875 -0.78125q0 -0.4375 0.296875 -0.734375q0.3125 -0.3125 0.78125 -0.3125q0.453125 0 0.765625 0.3125q0.328125 0.296875 0.328125 0.734375q0 0.46875 -0.328125 0.78125q-0.3125 0.296875 -0.765625 0.296875zm-0.78125 11.3125l0 -9.25l1.5625 0l0 9.25l-1.5625 0zm4.286972 0l0 -9.25l1.421875 0l0.09375 1.65625q0.453125 -0.875 1.28125 -1.375q0.84375 -0.515625 1.90625 -0.515625q1.640625 0 2.625 1.0q0.984375 1.0 0.984375 3.078125l0 5.40625l-1.578125 0l0 -5.25q0 -2.890625 -2.375 -2.890625q-1.203125 0 -2.0 0.875q-0.78125 0.859375 -0.78125 2.46875l0 4.796875l-1.578125 0zm10.671371 4.109377l0 -13.359377l1.421875 0l0.15625 1.53125q0.4375 -0.671875 1.265625 -1.21875q0.84375 -0.546875 2.125 -0.546875q1.375 0 2.40625 0.640625q1.03125 0.640625 1.59375 1.75q0.578125 1.09375 0.578125 2.484375q0 1.40625 -0.578125 2.5q-0.5625 1.078125 -1.609375 1.703125q-1.03125 0.625 -2.40625 0.625q-1.140625 0 -2.03125 -0.453125q-0.875 -0.46875 -1.34375 -1.3125l0 5.656252l-1.578125 0zm4.78125 -5.250002q0.9375 0 1.640625 -0.4375q0.703125 -0.4375 1.109375 -1.21875q0.421875 -0.78125 0.421875 -1.828125q0 -1.046875 -0.421875 -1.828125q-0.40625 -0.78125 -1.109375 -1.21875q-0.703125 -0.4375 -1.640625 -0.4375q-0.9375 0 -1.640625 0.4375q-0.703125 0.4375 -1.125 1.21875q-0.40625 0.78125 -0.40625 1.828125q0 1.046875 0.40625 1.828125q0.421875 0.78125 1.125 1.21875q0.703125 0.4375 1.640625 0.4375zm10.3255005 1.359375q-1.65625 0 -2.625 -0.984375q-0.96875 -1.0 -0.96875 -3.078125l0 -5.40625l1.578125 0l0 5.234375q0 2.890625 2.359375 2.890625q1.21875 0 2.0 -0.859375q0.796875 -0.875 0.796875 -2.46875l0 -4.796875l1.578125 0l0 9.25l-1.421875 0l-0.109375 -1.65625q-0.4375 0.875 -1.28125 1.375q-0.84375 0.5 -1.90625 0.5zm10.936996 -0.21875q-1.265625 0 -2.0 -0.609375q-0.71875 -0.625 -0.71875 -2.21875l0 -5.09375l-1.609375 0l0 -1.328125l1.609375 0l0.203125 -2.21875l1.359375 0l0 2.21875l2.734375 0l0 1.328125l-2.734375 0l0 5.09375q0 0.875 0.359375 1.1875q0.359375 0.296875 1.25 0.296875l0.96875 0l0 1.34375l-1.421875 0z" fill-rule="nonzero"/><path fill="#123693" d="m73.85355 240.66754l0 0c0 -2.3222046 1.8825226 -4.204727 4.204727 -4.204727l0 0c1.1151657 0 2.1846542 0.44300842 2.9731903 1.2315369c0.7885361 0.7885437 1.2315369 1.8580322 1.2315369 2.9731903l0 0c0 2.3222046 -1.8825226 4.204727 -4.204727 4.204727l0 0c-2.3222046 0 -4.204727 -1.8825226 -4.204727 -4.204727z" fill-rule="evenodd"/><path fill="#ffdb13" d="m15.65748 125.307045l17.196852 -36.69291l17.19685 36.69291z" fill-rule="evenodd"/><path stroke="#123693" stroke-width="1.0" stroke-linejoin="round" stroke-linecap="butt" d="m15.65748 125.307045l17.196852 -36.69291l17.19685 36.69291z" fill-rule="evenodd"/><path fill="#f9526b" d="m49.201614 59.27056l34.3937 0l-9.556625 11.464455l-13.372623 0l0 16.042244l-11.464451 13.753143z" fill-rule="evenodd"/><path stroke="#14234b" stroke-width="1.0" stroke-linejoin="round" stroke-linecap="butt" d="m49.201614 59.27056l34.3937 0l-9.556625 11.464455l-13.372623 0l0 16.042244l-11.464451 13.753143z" fill-rule="evenodd"/><path fill="#ff8a4f" d="m84.81071 97.42885c7.1653595 -21.404198 35.110237 0 0 27.519691c-35.110233 -27.519691 -7.165352 -48.92389 0 -27.519691z" fill-rule="evenodd"/><path stroke="#123693" stroke-width="1.0" stroke-linejoin="round" stroke-linecap="butt" d="m84.81071 97.42885c7.1653595 -21.404198 35.110237 0 0 27.519691c-35.110233 -27.519691 -7.165352 -48.92389 0 -27.519691z" fill-rule="evenodd"/><path fill="#000000" fill-opacity="0.0" d="m107.37795 53.41492l0 0c1.5077667 0 2.9537811 0.59895706 4.019928 1.6651077c1.0661545 1.0661507 1.6651154 2.512165 1.6651154 4.019932l0 29.102364c0 3.1397552 2.5452728 5.6850357 5.6850357 5.6850357l0 0c-3.1397629 0 -5.6850357 2.5452805 -5.6850357 5.6850433l0 29.102356c0 3.1397705 -2.5452805 5.6850433 -5.6850433 5.6850433z" fill-rule="evenodd"/><path fill="#000000" fill-opacity="0.0" d="m107.37795 53.41492l0 0c1.5077667 0 2.9537811 0.59895706 4.019928 1.6651077c1.0661545 1.0661507 1.6651154 2.512165 1.6651154 4.019932l0 29.102364c0 3.1397552 2.5452728 5.6850357 5.6850357 5.6850357l0 0c-3.1397629 0 -5.6850357 2.5452805 -5.6850357 5.6850433l0 29.102356c0 3.1397705 -2.5452805 5.6850433 -5.6850433 5.6850433" fill-rule="evenodd"/><path stroke="#123693" stroke-width="1.0" stroke-linejoin="round" stroke-linecap="butt" d="m107.37795 53.41492l0 0c1.5077667 0 2.9537811 0.59895706 4.019928 1.6651077c1.0661545 1.0661507 1.6651154 2.512165 1.6651154 4.019932l0 29.102364c0 3.1397552 2.5452728 5.6850357 5.6850357 5.6850357l0 0c-3.1397629 0 -5.6850357 2.5452805 -5.6850357 5.6850433l0 29.102356c0 3.1397705 -2.5452805 5.6850433 -5.6850433 5.6850433" fill-rule="evenodd"/><path fill="#000000" fill-opacity="0.0" d="m17.43832 53.41492l0 0c-1.5077658 0 -2.9537783 0.59895706 -4.01993 1.6651077c-1.0661516 1.0661507 -1.6651096 2.512165 -1.6651096 4.019932l0 29.102364c0 3.1397552 -2.5452785 5.6850357 -5.685039 5.6850357l0 0c3.1397605 0 5.685039 2.5452805 5.685039 5.6850433l0 29.102356c0 3.1397705 2.5452785 5.6850433 5.6850395 5.6850433z" fill-rule="evenodd"/><path fill="#000000" fill-opacity="0.0" d="m17.43832 53.41492l0 0c-1.5077658 0 -2.9537783 0.59895706 -4.01993 1.6651077c-1.0661516 1.0661507 -1.6651096 2.512165 -1.6651096 4.019932l0 29.102364c0 3.1397552 -2.5452785 5.6850357 -5.685039 5.6850357l0 0c3.1397605 0 5.685039 2.5452805 5.685039 5.6850433l0 29.102356c0 3.1397705 2.5452785 5.6850433 5.6850395 5.6850433" fill-rule="evenodd"/><path stroke="#123693" stroke-width="1.0" stroke-linejoin="round" stroke-linecap="butt" d="m17.43832 53.41492l0 0c-1.5077658 0 -2.9537783 0.59895706 -4.01993 1.6651077c-1.0661516 1.0661507 -1.6651096 2.512165 -1.6651096 4.019932l0 29.102364c0 3.1397552 -2.5452785 5.6850357 -5.685039 5.6850357l0 0c3.1397605 0 5.685039 2.5452805 5.685039 5.6850433l0 29.102356c0 3.1397705 2.5452785 5.6850433 5.6850395 5.6850433" fill-rule="evenodd"/><path fill="#14234b" d="m178.27602 76.031715l0 0c0 -7.427574 6.02124 -13.448818 13.448807 -13.448818l0 0c3.5668488 0 6.98761 1.4169273 9.50975 3.9390678c2.5221558 2.5221405 3.9390717 5.9429016 3.9390717 9.50975l0 0c0 7.427582 -6.02124 13.448822 -13.448822 13.448822l0 0c-7.4275665 0 -13.448807 -6.02124 -13.448807 -13.448822z" fill-rule="evenodd"/><path stroke="#123693" stroke-width="1.0" stroke-linejoin="round" stroke-linecap="butt" d="m178.27602 76.031715l0 0c0 -7.427574 6.02124 -13.448818 13.448807 -13.448818l0 0c3.5668488 0 6.98761 1.4169273 9.50975 3.9390678c2.5221558 2.5221405 3.9390717 5.9429016 3.9390717 9.50975l0 0c0 7.427582 -6.02124 13.448822 -13.448822 13.448822l0 0c-7.4275665 0 -13.448807 -6.02124 -13.448807 -13.448822z" fill-rule="evenodd"/><path fill="#14234b" d="m229.44398 76.031715l0 0c0 -7.427574 6.02124 -13.448818 13.448822 -13.448818l0 0c3.5668488 0 6.98761 1.4169273 9.50975 3.9390678c2.5221405 2.5221405 3.9390564 5.9429016 3.9390564 9.50975l0 0c0 7.427582 -6.021225 13.448822 -13.448807 13.448822l0 0c-7.427582 0 -13.448822 -6.02124 -13.448822 -13.448822z" fill-rule="evenodd"/><path stroke="#123693" stroke-width="1.0" stroke-linejoin="round" stroke-linecap="butt" d="m229.44398 76.031715l0 0c0 -7.427574 6.02124 -13.448818 13.448822 -13.448818l0 0c3.5668488 0 6.98761 1.4169273 9.50975 3.9390678c2.5221405 2.5221405 3.9390564 5.9429016 3.9390564 9.50975l0 0c0 7.427582 -6.021225 13.448822 -13.448807 13.448822l0 0c-7.427582 0 -13.448822 -6.02124 -13.448822 -13.448822z" fill-rule="evenodd"/><path fill="#14234b" d="m205.17365 107.08421l0 0c0 -7.427582 6.02124 -13.448822 13.448822 -13.448822l0 0c3.5668488 0 6.98761 1.4169235 9.50975 3.9390717c2.5221405 2.5221405 3.9390717 5.9429016 3.9390717 9.50975l0 0c0 7.427574 -6.02124 13.448814 -13.448822 13.448814l0 0c-7.427582 0 -13.448822 -6.02124 -13.448822 -13.448814z" fill-rule="evenodd"/><path stroke="#123693" stroke-width="1.0" stroke-linejoin="round" stroke-linecap="butt" d="m205.17365 107.08421l0 0c0 -7.427582 6.02124 -13.448822 13.448822 -13.448822l0 0c3.5668488 0 6.98761 1.4169235 9.50975 3.9390717c2.5221405 2.5221405 3.9390717 5.9429016 3.9390717 9.50975l0 0c0 7.427574 -6.02124 13.448814 -13.448822 13.448814l0 0c-7.427582 0 -13.448822 -6.02124 -13.448822 -13.448814z" fill-rule="evenodd"/><path fill="#000000" fill-opacity="0.0" d="m263.59097 53.41492l0 0c1.5077515 0 2.9537659 0.59895706 4.019928 1.6651077c1.0661621 1.0661507 1.6651001 2.512165 1.6651001 4.019932l0 29.102364c0 3.1397552 2.545288 5.6850357 5.6850586 5.6850357l0 0c-3.1397705 0 -5.6850586 2.5452805 -5.6850586 5.6850433l0 29.102356c0 3.1397705 -2.5452576 5.6850433 -5.685028 5.6850433z" fill-rule="evenodd"/><path fill="#000000" fill-opacity="0.0" d="m263.59097 53.41492l0 0c1.5077515 0 2.9537659 0.59895706 4.019928 1.6651077c1.0661621 1.0661507 1.6651001 2.512165 1.6651001 4.019932l0 29.102364c0 3.1397552 2.545288 5.6850357 5.6850586 5.6850357l0 0c-3.1397705 0 -5.6850586 2.5452805 -5.6850586 5.6850433l0 29.102356c0 3.1397705 -2.5452576 5.6850433 -5.685028 5.6850433" fill-rule="evenodd"/><path stroke="#123693" stroke-width="1.0" stroke-linejoin="round" stroke-linecap="butt" d="m263.59097 53.41492l0 0c1.5077515 0 2.9537659 0.59895706 4.019928 1.6651077c1.0661621 1.0661507 1.6651001 2.512165 1.6651001 4.019932l0 29.102364c0 3.1397552 2.545288 5.6850357 5.6850586 5.6850357l0 0c-3.1397705 0 -5.6850586 2.5452805 -5.6850586 5.6850433l0 29.102356c0 3.1397705 -2.5452576 5.6850433 -5.685028 5.6850433" fill-rule="evenodd"/><path fill="#000000" fill-opacity="0.0" d="m173.65134 53.41492l0 0c-1.5077667 0 -2.9537811 0.59895706 -4.019928 1.6651077c-1.0661469 1.0661507 -1.6651154 2.512165 -1.6651154 4.019932l0 29.102364c0 3.1397552 -2.5452728 5.6850357 -5.685028 5.6850357l0 0c3.1397552 0 5.685028 2.5452805 5.685028 5.6850433l0 29.102356c0 3.1397705 2.545288 5.6850433 5.6850433 5.6850433z" fill-rule="evenodd"/><path fill="#000000" fill-opacity="0.0" d="m173.65134 53.41492l0 0c-1.5077667 0 -2.9537811 0.59895706 -4.019928 1.6651077c-1.0661469 1.0661507 -1.6651154 2.512165 -1.6651154 4.019932l0 29.102364c0 3.1397552 -2.5452728 5.6850357 -5.685028 5.6850357l0 0c3.1397552 0 5.685028 2.5452805 5.685028 5.6850433l0 29.102356c0 3.1397705 2.545288 5.6850433 5.6850433 5.6850433" fill-rule="evenodd"/><path stroke="#123693" stroke-width="1.0" stroke-linejoin="round" stroke-linecap="butt" d="m173.65134 53.41492l0 0c-1.5077667 0 -2.9537811 0.59895706 -4.019928 1.6651077c-1.0661469 1.0661507 -1.6651154 2.512165 -1.6651154 4.019932l0 29.102364c0 3.1397552 -2.5452728 5.6850357 -5.685028 5.6850357l0 0c3.1397552 0 5.685028 2.5452805 5.685028 5.6850433l0 29.102356c0 3.1397705 2.545288 5.6850433 5.6850433 5.6850433" fill-rule="evenodd"/><path fill="#14234b" d="m103.11811 153.2581l-15.708664 62.83464l-49.999996 0l-15.708664 -62.83464z" fill-rule="evenodd"/><path stroke="#123693" stroke-width="1.0" stroke-linejoin="round" stroke-linecap="butt" d="m103.11811 153.2581l-15.708664 62.83464l-49.999996 0l-15.708664 -62.83464z" fill-rule="evenodd"/><path fill="#000000" fill-opacity="0.0" d="m3.2742782 166.5022l118.267715 0l0 36.34645l-118.267715 0z" fill-rule="evenodd"/><path fill="#ffffff" d="m51.90084 186.81416q-1.328125 0 -2.359375 -0.59375q-1.015625 -0.609375 -1.609375 -1.6875q-0.59375 -1.09375 -0.59375 -2.5625q0 -1.453125 0.578125 -2.546875q0.578125 -1.09375 1.609375 -1.703125q1.046875 -0.609375 2.40625 -0.609375q1.34375 0 2.3125 0.609375q0.984375 0.609375 1.5 1.609375q0.53125 0.984375 0.53125 2.109375q0 0.21875 -0.015625 0.421875q0 0.203125 0 0.46875l-7.375 0q0.0625 1.0625 0.5 1.765625q0.4375 0.6875 1.09375 1.046875q0.671875 0.359375 1.421875 0.359375q0.96875 0 1.609375 -0.453125q0.65625 -0.453125 0.953125 -1.21875l1.5625 0q-0.375 1.296875 -1.4375 2.140625q-1.046875 0.84375 -2.6875 0.84375zm0 -8.375q-1.125 0 -2.0 0.6875q-0.859375 0.671875 -0.984375 1.984375l5.8125 0q-0.046875 -1.25 -0.859375 -1.953125q-0.796875 -0.71875 -1.96875 -0.71875zm6.443527 8.15625l0 -9.25l1.421875 0l0.09375 1.65625q0.453125 -0.875 1.28125 -1.375q0.84375 -0.515625 1.90625 -0.515625q1.640625 0 2.625 1.0q0.984375 1.0 0.984375 3.078125l0 5.40625l-1.578125 0l0 -5.25q0 -2.890625 -2.375 -2.890625q-1.203125 0 -2.0 0.875q-0.78125 0.859375 -0.78125 2.46875l0 4.796875l-1.578125 0zm14.936996 0.21875q-1.328125 0 -2.390625 -0.59375q-1.046875 -0.609375 -1.65625 -1.703125q-0.609375 -1.09375 -0.609375 -2.546875q0 -1.453125 0.609375 -2.546875q0.609375 -1.09375 1.65625 -1.703125q1.0625 -0.609375 2.390625 -0.609375q1.640625 0 2.765625 0.859375q1.125 0.859375 1.421875 2.296875l-1.59375 0q-0.1875 -0.859375 -0.921875 -1.328125q-0.71875 -0.484375 -1.703125 -0.484375q-0.78125 0 -1.46875 0.40625q-0.6875 0.390625 -1.125 1.171875q-0.421875 0.78125 -0.421875 1.9375q0 1.15625 0.421875 1.9375q0.4375 0.78125 1.125 1.1875q0.6875 0.40625 1.46875 0.40625q0.984375 0 1.703125 -0.46875q0.734375 -0.484375 0.921875 -1.359375l1.59375 0q-0.28125 1.390625 -1.421875 2.265625q-1.125 0.875 -2.765625 0.875z" fill-rule="nonzero"/><path fill="#f9526b" d="m55.307087 224.19247l14.204723 0l0 28.913391l-14.204723 0z" fill-rule="evenodd"/><path stroke="#123693" stroke-width="1.0" stroke-linejoin="round" stroke-linecap="butt" d="m55.307087 224.19247l14.204723 0l0 28.913391l-14.204723 0z" fill-rule="evenodd"/><path fill="#000000" fill-opacity="0.0" d="m159.48729 10.049434l118.267715 0l0 36.346455l-118.267715 0z" fill-rule="evenodd"/><path fill="#123693" d="m170.52863 30.142662l0 -9.25l1.421875 0l0.125 1.765625q0.4375 -0.90625 1.3125 -1.453125q0.875 -0.546875 2.171875 -0.546875l0 1.65625l-0.4375 0q-0.8125 0 -1.515625 0.296875q-0.6875 0.28125 -1.09375 0.96875q-0.40625 0.6875 -0.40625 1.890625l0 4.671875l-1.578125 0zm9.850342 0.21875q-1.15625 0 -1.921875 -0.390625q-0.765625 -0.390625 -1.140625 -1.03125q-0.359375 -0.65625 -0.359375 -1.421875q0 -1.421875 1.078125 -2.1875q1.078125 -0.765625 2.953125 -0.765625l2.5 0l0 -0.109375q0 -1.21875 -0.640625 -1.84375q-0.640625 -0.625 -1.703125 -0.625q-0.90625 0 -1.578125 0.46875q-0.65625 0.453125 -0.828125 1.328125l-1.59375 0q0.09375 -1.015625 0.671875 -1.703125q0.59375 -0.6875 1.46875 -1.046875q0.875 -0.375 1.859375 -0.375q1.953125 0 2.921875 1.046875q0.984375 1.03125 0.984375 2.75l0 5.6875l-1.40625 0l-0.09375 -1.65625q-0.390625 0.78125 -1.140625 1.328125q-0.75 0.546875 -2.03125 0.546875zm0.25 -1.3125q0.890625 0 1.53125 -0.46875q0.65625 -0.46875 0.984375 -1.21875q0.34375 -0.75 0.34375 -1.5625l0 -0.015625l-2.375 0q-1.375 0 -1.953125 0.46875q-0.5625 0.46875 -0.5625 1.1875q0 0.71875 0.53125 1.171875q0.53125 0.4375 1.5 0.4375zm6.764908 1.09375l0 -9.25l1.421875 0l0.09375 1.65625q0.453125 -0.875 1.28125 -1.375q0.84375 -0.515625 1.90625 -0.515625q1.640625 0 2.625 1.0q0.984375 1.0 0.984375 3.078125l0 5.40625l-1.578125 0l0 -5.25q0 -2.890625 -2.375 -2.890625q-1.203125 0 -2.0 0.875q-0.78125 0.859375 -0.78125 2.46875l0 4.796875l-1.578125 0zm14.874496 0.21875q-1.375 0 -2.421875 -0.625q-1.03125 -0.640625 -1.609375 -1.734375q-0.5625 -1.109375 -0.5625 -2.5q0 -1.40625 0.578125 -2.5q0.578125 -1.09375 1.609375 -1.71875q1.03125 -0.625 2.421875 -0.625q1.140625 0 2.015625 0.46875q0.875 0.46875 1.359375 1.3125l0 -5.734375l1.578125 0l0 13.4375l-1.421875 0l-0.15625 -1.53125q-0.4375 0.671875 -1.28125 1.21875q-0.84375 0.53125 -2.109375 0.53125zm0.171875 -1.359375q0.921875 0 1.640625 -0.4375q0.71875 -0.4375 1.125 -1.21875q0.40625 -0.78125 0.40625 -1.828125q0 -1.046875 -0.40625 -1.828125q-0.40625 -0.78125 -1.125 -1.21875q-0.71875 -0.4375 -1.640625 -0.4375q-0.921875 0 -1.640625 0.4375q-0.71875 0.4375 -1.125 1.21875q-0.390625 0.78125 -0.390625 1.828125q0 1.046875 0.390625 1.828125q0.40625 0.78125 1.125 1.21875q0.71875 0.4375 1.640625 0.4375zm11.5598755 1.359375q-1.296875 0 -2.34375 -0.59375q-1.046875 -0.59375 -1.65625 -1.6875q-0.609375 -1.09375 -0.609375 -2.5625q0 -1.46875 0.609375 -2.5625q0.625 -1.09375 1.671875 -1.6875q1.0625 -0.609375 2.375 -0.609375q1.296875 0 2.34375 0.609375q1.046875 0.59375 1.65625 1.6875q0.609375 1.09375 0.609375 2.5625q0 1.46875 -0.625 2.5625q-0.609375 1.09375 -1.671875 1.6875q-1.046875 0.59375 -2.359375 0.59375zm0 -1.34375q0.8125 0 1.5 -0.390625q0.6875 -0.390625 1.109375 -1.171875q0.4375 -0.78125 0.4375 -1.9375q0 -1.15625 -0.421875 -1.9375q-0.421875 -0.78125 -1.109375 -1.171875q-0.6875 -0.40625 -1.46875 -0.40625q-0.8125 0 -1.5 0.40625q-0.6875 0.390625 -1.125 1.171875q-0.421875 0.78125 -0.421875 1.9375q0 1.15625 0.421875 1.9375q0.4375 0.78125 1.109375 1.171875q0.6875 0.390625 1.46875 0.390625zm6.82576 1.125l0 -9.25l1.421875 0l0.109375 1.34375q0.453125 -0.75 1.1875 -1.15625q0.75 -0.421875 1.6875 -0.421875q1.109375 0 1.890625 0.453125q0.796875 0.453125 1.234375 1.359375q0.484375 -0.828125 1.328125 -1.3125q0.84375 -0.5 1.84375 -0.5q1.65625 0 2.640625 1.0q0.984375 1.0 0.984375 3.078125l0 5.40625l-1.546875 0l0 -5.25q0 -1.421875 -0.578125 -2.15625q-0.578125 -0.734375 -1.65625 -0.734375q-1.125 0 -1.859375 0.875q-0.734375 0.859375 -0.734375 2.46875l0 4.796875l-1.5625 0l0 -5.25q0 -1.421875 -0.578125 -2.15625q-0.578125 -0.734375 -1.671875 -0.734375q-1.09375 0 -1.828125 0.875q-0.734375 0.859375 -0.734375 2.46875l0 4.796875l-1.578125 0zm22.594376 -11.3125q-0.46875 0 -0.78125 -0.296875q-0.296875 -0.3125 -0.296875 -0.78125q0 -0.4375 0.296875 -0.734375q0.3125 -0.3125 0.78125 -0.3125q0.453125 0 0.765625 0.3125q0.328125 0.296875 0.328125 0.734375q0 0.46875 -0.328125 0.78125q-0.3125 0.296875 -0.765625 0.296875zm-0.78125 11.3125l0 -9.25l1.5625 0l0 9.25l-1.5625 0zm4.286972 0l0 -9.25l1.421875 0l0.09375 1.65625q0.453125 -0.875 1.28125 -1.375q0.84375 -0.515625 1.90625 -0.515625q1.640625 0 2.625 1.0q0.984375 1.0 0.984375 3.078125l0 5.40625l-1.578125 0l0 -5.25q0 -2.890625 -2.375 -2.890625q-1.203125 0 -2.0 0.875q-0.78125 0.859375 -0.78125 2.46875l0 4.796875l-1.578125 0zm11.624496 -11.3125q-0.46875 0 -0.78125 -0.296875q-0.296875 -0.3125 -0.296875 -0.78125q0 -0.4375 0.296875 -0.734375q0.3125 -0.3125 0.78125 -0.3125q0.453125 0 0.765625 0.3125q0.328125 0.296875 0.328125 0.734375q0 0.46875 -0.328125 0.78125q-0.3125 0.296875 -0.765625 0.296875zm-0.78125 11.3125l0 -9.25l1.5625 0l0 9.25l-1.5625 0zm7.9432373 0q-1.265625 0 -2.0 -0.609375q-0.71875 -0.625 -0.71875 -2.21875l0 -5.09375l-1.609375 0l0 -1.328125l1.609375 0l0.203125 -2.21875l1.359375 0l0 2.21875l2.734375 0l0 1.328125l-2.734375 0l0 5.09375q0 0.875 0.359375 1.1875q0.359375 0.296875 1.25 0.296875l0.96875 0l0 1.34375l-1.421875 0z" fill-rule="nonzero"/><path fill="#14234b" d="m298.75815 53.179356l121.22833 20.354328l0 40.708664l-121.22833 20.354332z" fill-rule="evenodd"/><path stroke="#123693" stroke-width="1.0" stroke-linejoin="round" stroke-linecap="butt" d="m298.75815 53.179356l121.22833 20.354328l0 40.708664l-121.22833 20.354332z" fill-rule="evenodd"/><path fill="#000000" fill-opacity="0.0" d="m299.9277 75.71479l118.26773 0l0 36.34646l-118.26773 0z" fill-rule="evenodd"/><path fill="#ffffff" d="m313.08624 95.808014q-1.265625 0 -2.0 -0.609375q-0.71875 -0.625 -0.71875 -2.21875l0 -5.09375l-1.609375 0l0 -1.328125l1.609375 0l0.203125 -2.21875l1.359375 0l0 2.21875l2.734375 0l0 1.328125l-2.734375 0l0 5.09375q0 0.875 0.359375 1.1875q0.359375 0.296875 1.25 0.296875l0.96875 0l0 1.34375l-1.421875 0zm3.5637207 0l0 -9.25l1.421875 0l0.125 1.765625q0.4375 -0.90625 1.3125 -1.453125q0.875 -0.546875 2.171875 -0.546875l0 1.65625l-0.4375 0q-0.8125 0 -1.515625 0.296875q-0.6875 0.28125 -1.09375 0.96875q-0.40625 0.6875 -0.40625 1.890625l0 4.671875l-1.578125 0zm9.850342 0.21875q-1.15625 0 -1.921875 -0.390625q-0.765625 -0.390625 -1.140625 -1.03125q-0.359375 -0.65625 -0.359375 -1.421875q0 -1.421875 1.078125 -2.1875q1.078125 -0.765625 2.953125 -0.765625l2.5 0l0 -0.109375q0 -1.21875 -0.640625 -1.84375q-0.640625 -0.625 -1.703125 -0.625q-0.90625 0 -1.578125 0.46875q-0.65625 0.453125 -0.828125 1.328125l-1.59375 0q0.09375 -1.015625 0.671875 -1.703125q0.59375 -0.6875 1.46875 -1.046875q0.875 -0.375 1.859375 -0.375q1.953125 0 2.921875 1.046875q0.984375 1.03125 0.984375 2.75l0 5.6875l-1.40625 0l-0.09375 -1.65625q-0.390625 0.78125 -1.140625 1.328125q-0.75 0.546875 -2.03125 0.546875zm0.25 -1.3125q0.890625 0 1.53125 -0.46875q0.65625 -0.46875 0.984375 -1.21875q0.34375 -0.75 0.34375 -1.5625l0 -0.015625l-2.375 0q-1.375 0 -1.953125 0.46875q-0.5625 0.46875 -0.5625 1.1875q0 0.71875 0.53125 1.171875q0.53125 0.4375 1.5 0.4375zm6.764923 1.09375l0 -9.25l1.421875 0l0.09375 1.65625q0.453125 -0.875 1.28125 -1.375q0.84375 -0.515625 1.90625 -0.515625q1.640625 0 2.625 1.0q0.984375 1.0 0.984375 3.078125l0 5.40625l-1.578125 0l0 -5.25q0 -2.890625 -2.375 -2.890625q-1.203125 0 -2.0 0.875q-0.78125 0.859375 -0.78125 2.46875l0 4.796875l-1.578125 0zm14.218231 0.21875q-1.65625 0 -2.765625 -0.828125q-1.09375 -0.84375 -1.28125 -2.28125l1.609375 0q0.140625 0.71875 0.765625 1.265625q0.625 0.53125 1.6875 0.53125q1.0 0 1.453125 -0.421875q0.46875 -0.421875 0.46875 -1.0q0 -0.84375 -0.609375 -1.125q-0.59375 -0.28125 -1.703125 -0.5q-0.734375 -0.15625 -1.484375 -0.421875q-0.75 -0.28125 -1.25 -0.796875q-0.5 -0.515625 -0.5 -1.359375q0 -1.203125 0.890625 -1.984375q0.90625 -0.78125 2.46875 -0.78125q1.46875 0 2.40625 0.75q0.9375 0.734375 1.09375 2.09375l-1.546875 0q-0.09375 -0.703125 -0.609375 -1.109375q-0.515625 -0.40625 -1.375 -0.40625q-0.828125 0 -1.296875 0.359375q-0.453125 0.359375 -0.453125 0.9375q0 0.546875 0.578125 0.875q0.59375 0.3125 1.609375 0.53125q0.859375 0.1875 1.625 0.46875q0.78125 0.265625 1.265625 0.796875q0.5 0.53125 0.5 1.53125q0.015625 1.25 -0.953125 2.0625q-0.953125 0.8125 -2.59375 0.8125zm6.296875 -0.21875l0 -7.921875l-1.40625 0l0 -1.328125l1.40625 0l0 -1.609375q0 -1.34375 0.671875 -1.953125q0.671875 -0.625 1.953125 -0.625l0.9375 0l0 1.34375l-0.6875 0q-0.71875 0 -1.015625 0.296875q-0.296875 0.28125 -0.296875 0.96875l0 1.578125l2.28125 0l0 1.328125l-2.28125 0l0 7.921875l-1.5625 0zm9.542328 0.21875q-1.296875 0 -2.34375 -0.59375q-1.046875 -0.59375 -1.65625 -1.6875q-0.609375 -1.09375 -0.609375 -2.5625q0 -1.46875 0.609375 -2.5625q0.625 -1.09375 1.671875 -1.6875q1.0625 -0.609375 2.375 -0.609375q1.296875 0 2.34375 0.609375q1.046875 0.59375 1.65625 1.6875q0.609375 1.09375 0.609375 2.5625q0 1.46875 -0.625 2.5625q-0.609375 1.09375 -1.671875 1.6875q-1.046875 0.59375 -2.359375 0.59375zm0 -1.34375q0.8125 0 1.5 -0.390625q0.6875 -0.390625 1.109375 -1.171875q0.4375 -0.78125 0.4375 -1.9375q0 -1.15625 -0.421875 -1.9375q-0.421875 -0.78125 -1.109375 -1.171875q-0.6875 -0.40625 -1.46875 -0.40625q-0.8125 0 -1.5 0.40625q-0.6875 0.390625 -1.125 1.171875q-0.421875 0.78125 -0.421875 1.9375q0 1.15625 0.421875 1.9375q0.4375 0.78125 1.109375 1.171875q0.6875 0.390625 1.46875 0.390625zm6.825775 1.125l0 -9.25l1.421875 0l0.125 1.765625q0.4375 -0.90625 1.3125 -1.453125q0.875 -0.546875 2.171875 -0.546875l0 1.65625l-0.4375 0q-0.8125 0 -1.515625 0.296875q-0.6875 0.28125 -1.09375 0.96875q-0.40625 0.6875 -0.40625 1.890625l0 4.671875l-1.578125 0zm6.772217 0l0 -9.25l1.421875 0l0.109375 1.34375q0.453125 -0.75 1.1875 -1.15625q0.75 -0.421875 1.6875 -0.421875q1.109375 0 1.890625 0.453125q0.796875 0.453125 1.234375 1.359375q0.484375 -0.828125 1.328125 -1.3125q0.84375 -0.5 1.84375 -0.5q1.65625 0 2.640625 1.0q0.984375 1.0 0.984375 3.078125l0 5.40625l-1.546875 0l0 -5.25q0 -1.421875 -0.578125 -2.15625q-0.578125 -0.734375 -1.65625 -0.734375q-1.125 0 -1.859375 0.875q-0.734375 0.859375 -0.734375 2.46875l0 4.796875l-1.5625 0l0 -5.25q0 -1.421875 -0.578125 -2.15625q-0.578125 -0.734375 -1.671875 -0.734375q-1.09375 0 -1.828125 0.875q-0.734375 0.859375 -0.734375 2.46875l0 4.796875l-1.578125 0zm20.869202 0.21875q-1.328125 0 -2.359375 -0.59375q-1.015625 -0.609375 -1.609375 -1.6875q-0.59375 -1.09375 -0.59375 -2.5625q0 -1.453125 0.578125 -2.546875q0.578125 -1.09375 1.609375 -1.703125q1.046875 -0.609375 2.40625 -0.609375q1.34375 0 2.3125 0.609375q0.984375 0.609375 1.5 1.609375q0.53125 0.984375 0.53125 2.109375q0 0.21875 -0.015625 0.421875q0 0.203125 0 0.46875l-7.375 0q0.0625 1.0625 0.5 1.765625q0.4375 0.6875 1.09375 1.046875q0.671875 0.359375 1.421875 0.359375q0.96875 0 1.609375 -0.453125q0.65625 -0.453125 0.953125 -1.21875l1.5625 0q-0.375 1.296875 -1.4375 2.140625q-1.046875 0.84375 -2.6875 0.84375zm0 -8.375q-1.125 0 -2.0 0.6875q-0.859375 0.671875 -0.984375 1.984375l5.8125 0q-0.046875 -1.25 -0.859375 -1.953125q-0.796875 -0.71875 -1.96875 -0.71875zm6.4435425 8.15625l0 -9.25l1.421875 0l0.125 1.765625q0.4375 -0.90625 1.3125 -1.453125q0.875 -0.546875 2.171875 -0.546875l0 1.65625l-0.4375 0q-0.8125 0 -1.515625 0.296875q-0.6875 0.28125 -1.09375 0.96875q-0.40625 0.6875 -0.40625 1.890625l0 4.671875l-1.578125 0z" fill-rule="nonzero"/><path fill="#000000" fill-opacity="0.0" d="m336.01575 93.888016l0 0c0 -1.5916214 1.2902527 -2.8818893 2.881897 -2.8818893l0 0c0.76431274 0 1.497345 0.303627 2.0378113 0.8440857c0.5404358 0.5404587 0.8440857 1.2734833 0.8440857 2.0378036l0 0c0 1.5916214 -1.2902832 2.8818893 -2.881897 2.8818893l0 0c-1.5916443 0 -2.881897 -1.290268 -2.881897 -2.8818893z" fill-rule="evenodd"/><path fill="#000000" fill-opacity="0.0" d="m440.3681 10.049434l118.2677 0l0 36.346455l-118.2677 0z" fill-rule="evenodd"/><path fill="#123693" d="m456.43747 34.252037l0 -13.359375l1.421875 0l0.15625 1.53125q0.4375 -0.671875 1.265625 -1.21875q0.84375 -0.546875 2.125 -0.546875q1.375 0 2.40625 0.640625q1.03125 0.640625 1.59375 1.75q0.578125 1.09375 0.578125 2.484375q0 1.40625 -0.578125 2.5q-0.5625 1.078125 -1.609375 1.703125q-1.03125 0.625 -2.40625 0.625q-1.140625 0 -2.03125 -0.453125q-0.875 -0.46875 -1.34375 -1.3125l0 5.65625l-1.578125 0zm4.78125 -5.25q0.9375 0 1.640625 -0.4375q0.703125 -0.4375 1.109375 -1.21875q0.421875 -0.78125 0.421875 -1.828125q0 -1.046875 -0.421875 -1.828125q-0.40625 -0.78125 -1.109375 -1.21875q-0.703125 -0.4375 -1.640625 -0.4375q-0.9375 0 -1.640625 0.4375q-0.703125 0.4375 -1.125 1.21875q-0.40625 0.78125 -0.40625 1.828125q0 1.046875 0.40625 1.828125q0.421875 0.78125 1.125 1.21875q0.703125 0.4375 1.640625 0.4375zm6.9348755 1.140625l0 -9.25l1.421875 0l0.125 1.765625q0.4375 -0.90625 1.3125 -1.453125q0.875 -0.546875 2.171875 -0.546875l0 1.65625l-0.4375 0q-0.8125 0 -1.515625 0.296875q-0.6875 0.28125 -1.09375 0.96875q-0.40625 0.6875 -0.40625 1.890625l0 4.671875l-1.578125 0zm10.589447 0.21875q-1.328125 0 -2.359375 -0.59375q-1.015625 -0.609375 -1.609375 -1.6875q-0.59375 -1.09375 -0.59375 -2.5625q0 -1.453125 0.578125 -2.546875q0.578125 -1.09375 1.609375 -1.703125q1.046875 -0.609375 2.40625 -0.609375q1.34375 0 2.3125 0.609375q0.984375 0.609375 1.5 1.609375q0.53125 0.984375 0.53125 2.109375q0 0.21875 -0.015625 0.421875q0 0.203125 0 0.46875l-7.375 0q0.0625 1.0625 0.5 1.765625q0.4375 0.6875 1.09375 1.046875q0.671875 0.359375 1.421875 0.359375q0.96875 0 1.609375 -0.453125q0.65625 -0.453125 0.953125 -1.21875l1.5625 0q-0.375 1.296875 -1.4375 2.140625q-1.046875 0.84375 -2.6875 0.84375zm0 -8.375q-1.125 0 -2.0 0.6875q-0.859375 0.671875 -0.984375 1.984375l5.8125 0q-0.046875 -1.25 -0.859375 -1.953125q-0.796875 -0.71875 -1.96875 -0.71875zm10.646637 8.375q-1.375 0 -2.421875 -0.625q-1.03125 -0.640625 -1.609375 -1.734375q-0.5625 -1.109375 -0.5625 -2.5q0 -1.40625 0.578125 -2.5q0.578125 -1.09375 1.609375 -1.71875q1.03125 -0.625 2.421875 -0.625q1.140625 0 2.015625 0.46875q0.875 0.46875 1.359375 1.3125l0 -5.734375l1.578125 0l0 13.4375l-1.421875 0l-0.15625 -1.53125q-0.4375 0.671875 -1.28125 1.21875q-0.84375 0.53125 -2.109375 0.53125zm0.171875 -1.359375q0.921875 0 1.640625 -0.4375q0.71875 -0.4375 1.125 -1.21875q0.40625 -0.78125 0.40625 -1.828125q0 -1.046875 -0.40625 -1.828125q-0.40625 -0.78125 -1.125 -1.21875q-0.71875 -0.4375 -1.640625 -0.4375q-0.921875 0 -1.640625 0.4375q-0.71875 0.4375 -1.125 1.21875q-0.390625 0.78125 -0.390625 1.828125q0 1.046875 0.390625 1.828125q0.40625 0.78125 1.125 1.21875q0.71875 0.4375 1.640625 0.4375zm8.2942505 -10.171875q-0.46875 0 -0.78125 -0.296875q-0.296875 -0.3125 -0.296875 -0.78125q0 -0.4375 0.296875 -0.734375q0.3125 -0.3125 0.78125 -0.3125q0.453125 0 0.765625 0.3125q0.328125 0.296875 0.328125 0.734375q0 0.46875 -0.328125 0.78125q-0.3125 0.296875 -0.765625 0.296875zm-0.78125 11.3125l0 -9.25l1.5625 0l0 9.25l-1.5625 0zm8.552612 0.21875q-1.328125 0 -2.390625 -0.59375q-1.046875 -0.609375 -1.65625 -1.703125q-0.609375 -1.09375 -0.609375 -2.546875q0 -1.453125 0.609375 -2.546875q0.609375 -1.09375 1.65625 -1.703125q1.0625 -0.609375 2.390625 -0.609375q1.640625 0 2.765625 0.859375q1.125 0.859375 1.421875 2.296875l-1.59375 0q-0.1875 -0.859375 -0.921875 -1.328125q-0.71875 -0.484375 -1.703125 -0.484375q-0.78125 0 -1.46875 0.40625q-0.6875 0.390625 -1.125 1.171875q-0.421875 0.78125 -0.421875 1.9375q0 1.15625 0.421875 1.9375q0.4375 0.78125 1.125 1.1875q0.6875 0.40625 1.46875 0.40625q0.984375 0 1.703125 -0.46875q0.734375 -0.484375 0.921875 -1.359375l1.59375 0q-0.28125 1.390625 -1.421875 2.265625q-1.125 0.875 -2.765625 0.875zm9.763336 -0.21875q-1.265625 0 -2.0 -0.609375q-0.71875 -0.625 -0.71875 -2.21875l0 -5.09375l-1.609375 0l0 -1.328125l1.609375 0l0.203125 -2.21875l1.359375 0l0 2.21875l2.734375 0l0 1.328125l-2.734375 0l0 5.09375q0 0.875 0.359375 1.1875q0.359375 0.296875 1.25 0.296875l0.96875 0l0 1.34375l-1.421875 0zm4.5168457 -11.3125q-0.46875 0 -0.78125 -0.296875q-0.296875 -0.3125 -0.296875 -0.78125q0 -0.4375 0.296875 -0.734375q0.3125 -0.3125 0.78125 -0.3125q0.453125 0 0.765625 0.3125q0.328125 0.296875 0.328125 0.734375q0 0.46875 -0.328125 0.78125q-0.3125 0.296875 -0.765625 0.296875zm-0.78125 11.3125l0 -9.25l1.5625 0l0 9.25l-1.5625 0zm8.505737 0.21875q-1.296875 0 -2.34375 -0.59375q-1.046875 -0.59375 -1.65625 -1.6875q-0.609375 -1.09375 -0.609375 -2.5625q0 -1.46875 0.609375 -2.5625q0.625 -1.09375 1.671875 -1.6875q1.0625 -0.609375 2.375 -0.609375q1.296875 0 2.34375 0.609375q1.046875 0.59375 1.65625 1.6875q0.609375 1.09375 0.609375 2.5625q0 1.46875 -0.625 2.5625q-0.609375 1.09375 -1.671875 1.6875q-1.046875 0.59375 -2.359375 0.59375zm0 -1.34375q0.8125 0 1.5 -0.390625q0.6875 -0.390625 1.109375 -1.171875q0.4375 -0.78125 0.4375 -1.9375q0 -1.15625 -0.421875 -1.9375q-0.421875 -0.78125 -1.109375 -1.171875q-0.6875 -0.40625 -1.46875 -0.40625q-0.8125 0 -1.5 0.40625q-0.6875 0.390625 -1.125 1.171875q-0.421875 0.78125 -0.421875 1.9375q0 1.15625 0.421875 1.9375q0.4375 0.78125 1.109375 1.171875q0.6875 0.390625 1.46875 0.390625zm6.8257446 1.125l0 -9.25l1.421875 0l0.09375 1.65625q0.453125 -0.875 1.28125 -1.375q0.84375 -0.515625 1.90625 -0.515625q1.640625 0 2.625 1.0q0.984375 1.0 0.984375 3.078125l0 5.40625l-1.578125 0l0 -5.25q0 -2.890625 -2.375 -2.890625q-1.203125 0 -2.0 0.875q-0.78125 0.859375 -0.78125 2.46875l0 4.796875l-1.578125 0z" fill-rule="nonzero"/><path fill="#ffdb13" d="m454.90814 127.11757l12.992126 -38.3937l21.181091 34.551178z" fill-rule="evenodd"/><path stroke="#123693" stroke-width="1.0" stroke-linejoin="round" stroke-linecap="butt" d="m454.90814 127.11757l12.992126 -38.3937l21.181091 34.551178z" fill-rule="evenodd"/><path fill="#f9526b" d="m488.27414 57.770573l34.236237 3.1811028l-10.57196 10.528175l-13.311249 -1.2368317l-1.4817505 15.968628l-12.682312 12.629791z" fill-rule="evenodd"/><path stroke="#14234b" stroke-width="1.0" stroke-linejoin="round" stroke-linecap="butt" d="m488.27414 57.770573l34.236237 3.1811028l-10.57196 10.528175l-13.311249 -1.2368317l-1.4817505 15.968628l-12.682312 12.629791z" fill-rule="evenodd"/><path fill="#ff8a4f" d="m524.3371 97.752594c12.47113 -18.812332 33.920593 9.099083 -7.13385 26.574806c-26.786743 -35.67389 5.7598267 -49.10105 7.13385 -26.574806z" fill-rule="evenodd"/><path stroke="#123693" stroke-width="1.0" stroke-linejoin="round" stroke-linecap="butt" d="m524.3371 97.752594c12.47113 -18.812332 33.920593 9.099083 -7.13385 26.574806c-26.786743 -35.67389 5.7598267 -49.10105 7.13385 -26.574806z" fill-rule="evenodd"/><path fill="#000000" fill-opacity="0.0" d="m544.4718 53.41492l0 0c1.5077515 0 2.9537354 0.59895706 4.0198975 1.6651077c1.0661621 1.0661507 1.6651001 2.512165 1.6651001 4.019932l0 29.102364c0 3.1397552 2.545288 5.6850357 5.6850586 5.6850357l0 0c-3.1397705 0 -5.6850586 2.5452805 -5.6850586 5.6850433l0 29.102356c0 3.1397705 -2.545227 5.6850433 -5.6849976 5.6850433z" fill-rule="evenodd"/><path fill="#000000" fill-opacity="0.0" d="m544.4718 53.41492l0 0c1.5077515 0 2.9537354 0.59895706 4.0198975 1.6651077c1.0661621 1.0661507 1.6651001 2.512165 1.6651001 4.019932l0 29.102364c0 3.1397552 2.545288 5.6850357 5.6850586 5.6850357l0 0c-3.1397705 0 -5.6850586 2.5452805 -5.6850586 5.6850433l0 29.102356c0 3.1397705 -2.545227 5.6850433 -5.6849976 5.6850433" fill-rule="evenodd"/><path stroke="#123693" stroke-width="1.0" stroke-linejoin="round" stroke-linecap="butt" d="m544.4718 53.41492l0 0c1.5077515 0 2.9537354 0.59895706 4.0198975 1.6651077c1.0661621 1.0661507 1.6651001 2.512165 1.6651001 4.019932l0 29.102364c0 3.1397552 2.545288 5.6850357 5.6850586 5.6850357l0 0c-3.1397705 0 -5.6850586 2.5452805 -5.6850586 5.6850433l0 29.102356c0 3.1397705 -2.545227 5.6850433 -5.6849976 5.6850433" fill-rule="evenodd"/><path fill="#000000" fill-opacity="0.0" d="m454.53217 53.41492l0 0c-1.507782 0 -2.9537964 0.59895706 -4.019928 1.6651077c-1.0661621 1.0661507 -1.6651306 2.512165 -1.6651306 4.019932l0 29.102364c0 3.1397552 -2.545288 5.6850357 -5.685028 5.6850357l0 0c3.13974 0 5.685028 2.5452805 5.685028 5.6850433l0 29.102356c0 3.1397705 2.545288 5.6850433 5.6850586 5.6850433z" fill-rule="evenodd"/><path fill="#000000" fill-opacity="0.0" d="m454.53217 53.41492l0 0c-1.507782 0 -2.9537964 0.59895706 -4.019928 1.6651077c-1.0661621 1.0661507 -1.6651306 2.512165 -1.6651306 4.019932l0 29.102364c0 3.1397552 -2.545288 5.6850357 -5.685028 5.6850357l0 0c3.13974 0 5.685028 2.5452805 5.685028 5.6850433l0 29.102356c0 3.1397705 2.545288 5.6850433 5.6850586 5.6850433" fill-rule="evenodd"/><path stroke="#123693" stroke-width="1.0" stroke-linejoin="round" stroke-linecap="butt" d="m454.53217 53.41492l0 0c-1.507782 0 -2.9537964 0.59895706 -4.019928 1.6651077c-1.0661621 1.0661507 -1.6651306 2.512165 -1.6651306 4.019932l0 29.102364c0 3.1397552 -2.545288 5.6850357 -5.685028 5.6850357l0 0c3.13974 0 5.685028 2.5452805 5.685028 5.6850433l0 29.102356c0 3.1397705 2.545288 5.6850433 5.6850586 5.6850433" fill-rule="evenodd"/><path fill="#123693" d="m59.527557 267.32632l0 0c0 -1.5916138 1.290268 -2.8818665 2.8818932 -2.8818665l0 0c0.7643242 0 1.4973412 0.30361938 2.0377998 0.8440857c0.5404587 0.5404358 0.8440857 1.273468 0.8440857 2.0377808l0 0c0 1.5916443 -1.2902603 2.881897 -2.8818855 2.881897l0 0c-1.5916252 0 -2.8818932 -1.2902527 -2.8818932 -2.881897z" fill-rule="evenodd"/><path fill="#000000" fill-opacity="0.0" d="m352.68765 128.05415l0 0c0 -1.5916214 1.2902832 -2.8818817 2.881897 -2.8818817l0 0c0.76434326 0 1.497345 0.303627 2.0378113 0.8440857c0.5404663 0.5404587 0.8440857 1.2734756 0.8440857 2.037796l0 0c0 1.591629 -1.2902832 2.881897 -2.881897 2.881897l0 0c-1.5916138 0 -2.881897 -1.290268 -2.881897 -2.881897z" fill-rule="evenodd"/><path fill="#000000" fill-opacity="0.0" d="m65.291336 267.32632l290.2677 0l0 -136.37794" fill-rule="evenodd"/><path stroke="#123693" stroke-width="3.0" stroke-linejoin="round" stroke-linecap="butt" d="m65.291336 267.32635l290.2677 0l0 -118.37796" fill-rule="evenodd"/><path fill="#123693" stroke="#123693" stroke-width="3.0" stroke-linecap="butt" d="m360.51425 148.9484l-4.9552 -13.614304l-4.9552 13.614304z" fill-rule="evenodd"/><path fill="#123693" d="m58.199474 267.32108l0 0c0 -2.3222046 1.8825188 -4.204712 4.2047234 -4.204712l0 0c1.1151657 0 2.1846542 0.44299316 2.9731903 1.2315369c0.7885361 0.7885437 1.2315369 1.8580322 1.2315369 2.973175l0 0c0 2.3222046 -1.8825226 4.2047424 -4.204727 4.2047424l0 0c-2.3222046 0 -4.2047234 -1.8825378 -4.2047234 -4.2047424z" fill-rule="evenodd"/><path fill="#14234b" d="m134.99213 221.94313l62.83464 6.2202606l0 25.008316l-62.83464 6.2202606z" fill-rule="evenodd"/><path stroke="#123693" stroke-width="1.0" stroke-linejoin="round" stroke-linecap="butt" d="m134.99213 221.94313l62.83464 6.2202606l0 25.008316l-62.83464 6.2202606z" fill-rule="evenodd"/><path fill="#000000" fill-opacity="0.0" d="m134.99213 231.92213l62.83464 0l0 24.125992l-62.83464 0z" fill-rule="evenodd"/><path fill="#ffffff" d="m149.58527 245.90512l0 -13.0625l1.828125 0l4.703125 9.109375l4.671875 -9.109375l1.84375 0l0 13.0625l-1.5625 0l0 -10.265625l-4.375 8.40625l-1.171875 0l-4.359375 -8.390625l0 10.25l-1.578125 0zm15.801849 0l0 -13.0625l1.578125 0l0 11.8125l6.078125 0l0 1.25l-7.65625 0zm9.79454 0l0 -13.0625l4.296875 0q1.53125 0 2.515625 0.515625q0.984375 0.5 1.453125 1.359375q0.484375 0.859375 0.484375 1.9375q0 1.0625 -0.46875 1.921875q-0.453125 0.859375 -1.453125 1.375q-0.984375 0.5 -2.53125 0.5l-2.71875 0l0 5.453125l-1.578125 0zm1.578125 -6.765625l2.6875 0q1.5625 0 2.21875 -0.65625q0.671875 -0.671875 0.671875 -1.828125q0 -1.171875 -0.671875 -1.828125q-0.65625 -0.671875 -2.21875 -0.671875l-2.6875 0l0 4.984375z" fill-rule="nonzero"/><path fill="#123693" d="m75.18164 240.67279l0 0c0 -1.5916138 1.290268 -2.8818817 2.8818893 -2.8818817l0 0c0.764328 0 1.497345 0.30361938 2.0378036 0.8440857c0.5404587 0.54045105 0.8440857 1.273468 0.8440857 2.037796l0 0c0 1.591629 -1.290268 2.881897 -2.8818893 2.881897l0 0c-1.5916214 0 -2.8818893 -1.290268 -2.8818893 -2.881897z" fill-rule="evenodd"/><path fill="#000000" fill-opacity="0.0" d="m130.12117 240.67279l0 0c0 -1.5916138 1.290268 -2.8818817 2.881897 -2.8818817l0 0c0.764328 0 1.497345 0.30361938 2.037796 0.8440857c0.5404663 0.54045105 0.8440857 1.273468 0.8440857 2.037796l0 0c0 1.591629 -1.290268 2.881897 -2.8818817 2.881897l0 0c-1.591629 0 -2.881897 -1.290268 -2.881897 -2.881897z" fill-rule="evenodd"/><path fill="#000000" fill-opacity="0.0" d="m215.73885 227.07437l0 0c0 -1.591629 1.290268 -2.881897 2.8818817 -2.881897l0 0c0.764328 0 1.497345 0.30363464 2.0378113 0.8440857c0.5404663 0.5404663 0.8440857 1.2734833 0.8440857 2.0378113l0 0c0 1.5916138 -1.290268 2.8818817 -2.881897 2.8818817l0 0c-1.5916138 0 -2.8818817 -1.290268 -2.8818817 -2.8818817z" fill-rule="evenodd"/><path fill="#000000" fill-opacity="0.0" d="m215.73885 126.00667l0 0c0 -1.591629 1.290268 -2.8818893 2.8818817 -2.8818893l0 0c0.764328 0 1.497345 0.303627 2.0378113 0.8440857c0.5404663 0.5404587 0.8440857 1.2734756 0.8440857 2.0378036l0 0c0 1.5916214 -1.290268 2.8818817 -2.881897 2.8818817l0 0c-1.5916138 0 -2.8818817 -1.2902603 -2.8818817 -2.8818817z" fill-rule="evenodd"/><path fill="#000000" fill-opacity="0.0" d="m211.51874 234.79819l14.204727 0l0 16.472443l-14.204727 0z" fill-rule="evenodd"/><path fill="#123693" d="m213.56903 244.9544l0 -13.0625l1.578125 0l6.953125 10.46875l0 -10.46875l1.5625 0l0 13.0625l-1.5625 0l-6.953125 -10.46875l0 10.46875l-1.578125 0z" fill-rule="nonzero"/><path fill="#000000" fill-opacity="0.0" d="m80.94542 240.67279l49.16536 0" fill-rule="evenodd"/><path stroke="#123693" stroke-width="3.0" stroke-linejoin="round" stroke-linecap="butt" d="m80.94542 240.67279l31.16536 0" fill-rule="evenodd"/><path fill="#123693" stroke="#123693" stroke-width="3.0" stroke-linecap="butt" d="m112.11078 245.62799l13.614296 -4.9552l-13.614296 -4.955185z" fill-rule="evenodd"/><path fill="#123693" d="m214.41602 224.10892l0 0c0 -2.3222046 1.8825073 -4.204727 4.204712 -4.204727l0 0c1.1151733 0 2.1846619 0.44300842 2.9731903 1.2315369c0.7885437 0.7885437 1.2315369 1.8580322 1.2315369 2.9731903l0 0c0 2.3222046 -1.8825073 4.204727 -4.204727 4.204727l0 0c-2.3222046 0 -4.204712 -1.8825226 -4.204712 -4.204727z" fill-rule="evenodd"/><path fill="#123693" d="m215.7441 224.11417l0 0c0 -1.5916138 1.290268 -2.8818817 2.881897 -2.8818817l0 0c0.76431274 0 1.4973297 0.30361938 2.037796 0.8440857c0.5404663 0.54045105 0.8440857 1.2734833 0.8440857 2.037796l0 0c0 1.591629 -1.290268 2.881897 -2.8818817 2.881897l0 0c-1.591629 0 -2.881897 -1.290268 -2.881897 -2.881897z" fill-rule="evenodd"/><path fill="#000000" fill-opacity="0.0" d="m215.74016 375.93298l0 0c0 -1.5916138 1.290268 -2.881897 2.8818817 -2.881897l0 0c0.764328 0 1.497345 0.3036499 2.0378113 0.8440857c0.5404663 0.5404663 0.8440857 1.2734985 0.8440857 2.0378113l0 0c0 1.5916443 -1.290268 2.881897 -2.881897 2.881897l0 0c-1.5916138 0 -2.8818817 -1.2902527 -2.8818817 -2.881897z" fill-rule="evenodd"/><path fill="#000000" fill-opacity="0.0" d="m218.62599 221.23228l0 -92.346466" fill-rule="evenodd"/><path stroke="#123693" stroke-width="3.0" stroke-linejoin="round" stroke-linecap="butt" d="m218.62599 221.23228l0 -74.34645" fill-rule="evenodd"/><path fill="#123693" stroke="#123693" stroke-width="3.0" stroke-linecap="butt" d="m223.58118 146.88582l-4.955185 -13.614288l-4.9552 13.614288z" fill-rule="evenodd"/></g></svg>